<?xml version="1.0" standalone="no"?>
<!DOCTYPE svg PUBLIC "-//W3C//DTD SVG 20010904//EN"
 "http://www.w3.org/TR/2001/REC-SVG-20010904/DTD/svg10.dtd">
<svg version="1.0" xmlns="http://www.w3.org/2000/svg"
 width="162.000000pt" height="162.000000pt" viewBox="0 0 162.000000 162.000000"
 preserveAspectRatio="xMidYMid meet">
<metadata>
Created by potrace 1.14, written by Peter Selinger 2001-2017
</metadata>
<g transform="translate(0.000000,162.000000) scale(0.100000,-0.100000)"
fill="#000000" stroke="none">
<path d="M695 1613 c-316 -44 -585 -286 -671 -603 -20 -74 -27 -259 -13 -336
47 -254 207 -470 434 -585 126 -65 234 -88 385 -84 235 6 396 77 565 250 112
114 185 257 215 420 15 82 5 270 -19 351 -45 157 -149 314 -276 417 -71 58
-214 129 -305 153 -62 16 -250 26 -315 17z"/>
</g>
</svg>
